<?xml version="1.0" standalone="no"?>
<!DOCTYPE svg PUBLIC "-//W3C//DTD SVG 20010904//EN"
 "http://www.w3.org/TR/2001/REC-SVG-20010904/DTD/svg10.dtd">
<svg version="1.0" xmlns="http://www.w3.org/2000/svg"
 width="335.000000pt" height="335.000000pt" viewBox="0 0 335.000000 335.000000"
 preserveAspectRatio="xMidYMid meet">

<g transform="translate(0.000000,335.000000) scale(0.100000,-0.100000)"
fill="#000000" stroke="none">
<path d="M1541 3111 c-12 -8 -15 -57 -18 -283 -1 -150 -5 -316 -9 -368 l-6
-95 -74 -70 c-51 -49 -81 -89 -101 -130 l-28 -60 -6 -850 c-6 -931 -9 -893 53
-914 91 -32 429 -39 530 -11 52 15 65 31 71 92 4 29 8 420 9 868 l3 815 -27
58 c-18 38 -50 80 -92 120 -35 34 -70 73 -77 87 -11 20 -15 101 -16 375 -3
316 -4 351 -20 363 -20 14 -170 16 -192 3z m59 -571 c0 -43 -3 -50 -20 -50
-17 0 -20 7 -20 50 0 43 3 50 20 50 17 0 20 -7 20 -50z m288 -546 l62 -6 0
-399 0 -399 -52 -1 c-29 0 -132 -3 -228 -5 -96 -3 -217 -2 -267 1 l-93 7 0
399 0 399 23 5 c12 2 33 6 47 9 31 5 421 -2 508 -10z"/>
</g>
</svg>
